<svg width="48" height="48" viewBox="0 0 48 48" fill="none" xmlns="http://www.w3.org/2000/svg">
<path d="M46 5.99997C44.0848 7.35092 41.9642 8.38419 39.72 9.05997C38.5155 7.67499 36.9147 6.69335 35.1341 6.24782C33.3535 5.80229 31.479 5.91436 29.7642 6.56888C28.0493 7.22339 26.5769 8.38877 25.546 9.9074C24.515 11.426 23.9754 13.2246 24 15.06V17.06C20.4853 17.1511 17.0025 16.3716 13.862 14.7909C10.7215 13.2101 8.02063 10.8772 6 7.99997C6 7.99997 -2 26 16 34C11.8811 36.7959 6.97431 38.1978 2 38C20 48 42 38 42 15C41.9982 14.4429 41.9446 13.8872 41.84 13.34C43.8812 11.327 45.3217 8.7854 46 5.99997Z" stroke="black" stroke-width="4" stroke-linecap="round" stroke-linejoin="round"/>
</svg>
